<svg xmlns="http://www.w3.org/2000/svg" xmlns:xlink="http://www.w3.org/1999/xlink" viewBox="0 0 329.05 60"><defs><style>.cls-1{fill:#fff;}.cls-2{fill:#0098ff;}.cls-3{fill:#ff5b82;}.cls-4{fill:url(#linear-gradient);}.cls-5{opacity:0.2;}</style><linearGradient id="linear-gradient" y1="15" x2="44" y2="15" gradientUnits="userSpaceOnUse"><stop offset="0.01" stop-color="#1be0ba"/><stop offset="1" stop-color="#1be0ba"/></linearGradient></defs><title>Spark-AR-Hub-White</title><g id="Layer_2" data-name="Layer 2"><g id="Layer_1-2" data-name="Layer 1"><path class="cls-1" d="M83.69,43.05q-10.75,0-11.48-9.28h5.12a6.38,6.38,0,0,0,1.78,4c1,.87,2.48,1.3,4.58,1.3a6,6,0,0,0,3.9-1.22,3.9,3.9,0,0,0,1.5-3.18,3.33,3.33,0,0,0-1.24-2.92,10.75,10.75,0,0,0-4.72-1.48c-3.62-.53-6.2-1.39-7.72-2.56s-2.36-3.19-2.36-5.8A7.36,7.36,0,0,1,75.81,16,10.72,10.72,0,0,1,83,13.69a11.55,11.55,0,0,1,7.34,2.1A8.48,8.48,0,0,1,93.41,22H88.53a5,5,0,0,0-1.72-3.26,6.1,6.1,0,0,0-3.8-1,5.75,5.75,0,0,0-3.62,1,3.32,3.32,0,0,0-1.3,2.74,3.31,3.31,0,0,0,1.16,2.76A11,11,0,0,0,84,25.65c3.58.53,6.16,1.4,7.76,2.6s2.44,3.21,2.44,6a8,8,0,0,1-2.92,6.32A11.21,11.21,0,0,1,83.69,43.05Z"/><path class="cls-1" d="M103.81,49.81H99V21.73h4.84v3.36a7.6,7.6,0,0,1,2.84-2.72,7.93,7.93,0,0,1,4-1.08,8.62,8.62,0,0,1,6.64,2.88,11,11,0,0,1,2.64,7.76v.32a11.47,11.47,0,0,1-2.6,7.88,9.09,9.09,0,0,1-10.82,1.92,6.52,6.52,0,0,1-2.7-2.68Zm5.64-10.6a5,5,0,0,0,4.1-1.76A8,8,0,0,0,115,32.33V32a7.79,7.79,0,0,0-1.5-5.1,5,5,0,0,0-4.06-1.82,5.28,5.28,0,0,0-4.2,1.8A7.59,7.59,0,0,0,103.65,32v.32a7.63,7.63,0,0,0,1.52,5.12A5.37,5.37,0,0,0,109.45,39.21Z"/><path class="cls-1" d="M129.77,43.05a7.76,7.76,0,0,1-5.1-1.58,5.68,5.68,0,0,1-1.9-4.62,5.4,5.4,0,0,1,2.82-5,15.87,15.87,0,0,1,7.9-1.64h2.6V29.13a4.76,4.76,0,0,0-.88-3.2,3.7,3.7,0,0,0-2.92-1c-2.42,0-3.76,1.09-4,3.28h-4.68a6.73,6.73,0,0,1,2.68-5.16,10.4,10.4,0,0,1,6.28-1.76q8.37,0,8.36,7.64V42.65h-4.76V40.09A7.54,7.54,0,0,1,129.77,43.05Zm1.16-3.48a5.73,5.73,0,0,0,3.74-1.16,3.76,3.76,0,0,0,1.42-3.08V33.25h-2.48c-4,0-6,1.13-6,3.4Q127.57,39.58,130.93,39.57Z"/><path class="cls-1" d="M151.33,42.65h-4.84V21.73h4.84v3.92a7.15,7.15,0,0,1,6.8-4.24v4.52a8.19,8.19,0,0,0-5.14,1.4,5.45,5.45,0,0,0-1.66,4.44Z"/><path class="cls-1" d="M167.21,42.65h-4.84V12.05h4.84V30.93l7.48-9.2H180l-8.12,9.6,8.8,11.32h-5.6l-7.84-10.28Z"/><path class="cls-1" d="M196.69,42.65h-5l9.56-28.6h7l9.44,28.6h-5.52l-2.28-7.08H198.93Zm11.92-11-4.2-13.28-4.24,13.28Z"/><path class="cls-1" d="M227.33,42.65H222V14.05h9.6q5,0,7.86,2.12a7.36,7.36,0,0,1,2.82,6.28v.16q0,6-6.36,7.68l8,12.36h-5.76l-7.48-11.56h-3.4Zm0-24.48v9.12h4.28q5.44,0,5.44-4.56v-.16a3.94,3.94,0,0,0-1.36-3.36,6.66,6.66,0,0,0-4.08-1Z"/><path class="cls-1" d="M258.13,42.65V14.05h2.24V27.37h16.84V14.05h2.24v28.6h-2.24V29.25H260.37v13.4Z"/><path class="cls-1" d="M293.57,43a7.36,7.36,0,0,1-5.4-1.94c-1.3-1.29-2-3.31-2-6.06V21.73h2.12V34.85q0,6.28,5.72,6.28a7.05,7.05,0,0,0,4.8-1.78,6.17,6.17,0,0,0,2-4.9V21.73H303V42.65h-2.12v-4a6.66,6.66,0,0,1-2.72,3.08A8.38,8.38,0,0,1,293.57,43Z"/><path class="cls-1" d="M319.65,43a8.32,8.32,0,0,1-5-1.48,8.59,8.59,0,0,1-3-3.6v4.76h-2.12V11.73h2.12V26.61a8.87,8.87,0,0,1,3.14-3.68,8.26,8.26,0,0,1,4.82-1.52,8.8,8.8,0,0,1,6.72,2.88A10.81,10.81,0,0,1,329.05,32v.32a11.13,11.13,0,0,1-2.64,7.76A8.69,8.69,0,0,1,319.65,43Zm-.16-1.8a6.69,6.69,0,0,0,5.36-2.34,9.64,9.64,0,0,0,2-6.46v-.32a9.35,9.35,0,0,0-2.12-6.5,6.82,6.82,0,0,0-5.28-2.34,7.4,7.4,0,0,0-5.52,2.36,8.92,8.92,0,0,0-2.28,6.48v.32a9,9,0,0,0,2.22,6.48A7.43,7.43,0,0,0,319.49,41.17Z"/><polygon points="44 30 44 50 22 40 44 30"/><polygon class="cls-2" points="22 40 22 20 44 30 22 40"/><polygon class="cls-2" points="22 20 22 40 0 30 22 20"/><polygon points="0 30 0 10 22 20 0 30"/><polygon class="cls-3" points="22 40 0 50 22 60 44 50 44 30 22 40"/><polygon class="cls-4" points="22 0 0 10 0 30 22 20 44 10 22 0"/><polygon class="cls-5" points="22 20 0 30 22 40 22 20"/></g></g></svg>